# xmcd
#
# Track frame offsets: 
#        150
#        15225
#        26215
#        45480
#        65215
#        76717
#        92290
#        101817
#        117705
#        137277
#        149540
#        164415
#        178230
#        193605
#        206612
#        218935
#        240032
#        250990
#        260927
#        273132
#
# Disc length: 3827 seconds
#
# Revision: 1
# Processed by: cddbd v1.5.2PL0 Copyright (c) Steve Scherf et al.
# Submitted via: ExactAudioCopy v1.0b4
#
DISCID=1e0ef114
DTITLE=Elba Ramalho - 20 Super Sucessos
DYEAR=2000
DGENRE=MPB
TTITLE0=O Dia do Criador
TTITLE1=Cartão Postal
TTITLE2=Caldeirão dos Mitos
TTITLE3=Capím do Vale
TTITLE4=Imbalança
TTITLE5=Nó Cego
TTITLE6=Não Sonho Mais
TTITLE7=Canta Coração
TTITLE8=Ave de Prata
TTITLE9=Banquete de Signos
TTITLE10=Veio D'água
TTITLE11=Cajuína
TTITLE12=Espiral do Tempo
TTITLE13=Aquarela Nordestina
TTITLE14=Légua Tirana
TTITLE15=O Violeiro
TTITLE16=Pés de Milho
TTITLE17=Porto da Saudade
TTITLE18=Temporal
TTITLE19=Lua Viva
EXTD=
EXTT0=
EXTT1=
EXTT2=
EXTT3=
EXTT4=
EXTT5=
EXTT6=
EXTT7=
EXTT8=
EXTT9=
EXTT10=
EXTT11=
EXTT12=
EXTT13=
EXTT14=
EXTT15=
EXTT16=
EXTT17=
EXTT18=
EXTT19=
PLAYORDER=
